G04 #@! TF.FileFunction,Other,User*
%FSLAX46Y46*%
G04 Gerber Fmt 4.6, Leading zero omitted, Abs format (unit mm)*
G04 Created by KiCad (PCBNEW 4.0.7-e1-6374~58~ubuntu16.04.1) date Wed Aug  9 14:42:09 2017*
%MOMM*%
%LPD*%
G01*
G04 APERTURE LIST*
%ADD10C,0.100000*%
%ADD11C,0.050000*%
G04 APERTURE END LIST*
D10*
X86200000Y-51300000D02*
X86200000Y-42600000D01*
X78000000Y-52200000D02*
X79500000Y-51300000D01*
X79700000Y-42600000D02*
X78000000Y-41800000D01*
X164000000Y-35250000D02*
G75*
G03X161250000Y-32500000I-2750000J0D01*
G01*
X84000000Y-32500000D02*
X136500000Y-32500000D01*
X82000000Y-32500000D02*
X84000000Y-32500000D01*
X81999999Y-32500000D02*
G75*
G03X78000000Y-35500000I-499999J-3500000D01*
G01*
X78000000Y-41800000D02*
X78000000Y-35500000D01*
X79500000Y-51300000D02*
X86200000Y-51300000D01*
X78000000Y-167000000D02*
X78000000Y-52200000D01*
X78000000Y-167000000D02*
G75*
G03X80750000Y-169750000I2750000J0D01*
G01*
X97500000Y-167500000D02*
X95250000Y-169750000D01*
X161500000Y-169500000D02*
G75*
G03X164000000Y-167000000I0J2500000D01*
G01*
X138000000Y-141750000D02*
X100750000Y-141750000D01*
X141250000Y-145000000D02*
X138000000Y-141750000D01*
X141250000Y-167250000D02*
X141250000Y-145000000D01*
X95250000Y-169750000D02*
X80750000Y-169750000D01*
X97500000Y-145000000D02*
X97500000Y-167500000D01*
X100750000Y-141750000D02*
X97500000Y-145000000D01*
X143500000Y-169500000D02*
X141250000Y-167250000D01*
X161500000Y-169500000D02*
X143500000Y-169500000D01*
X164000000Y-85250000D02*
X164000000Y-167000000D01*
X162000000Y-83250000D02*
X164000000Y-85250000D01*
X152750000Y-83250000D02*
X162000000Y-83250000D01*
X152750000Y-73500000D02*
X152750000Y-83250000D01*
X162000000Y-73500000D02*
X152750000Y-73500000D01*
X164000000Y-71500000D02*
X162000000Y-73500000D01*
X164000000Y-35250000D02*
X164000000Y-71500000D01*
X155750000Y-32500000D02*
X161250000Y-32500000D01*
X155500000Y-32750000D02*
X155750000Y-32500000D01*
X154000000Y-34250000D02*
X155500000Y-32750000D01*
X154000000Y-35250000D02*
X154000000Y-34250000D01*
X154000000Y-43250000D02*
X154000000Y-35250000D01*
X138250000Y-43250000D02*
X154000000Y-43250000D01*
X138250000Y-34250000D02*
X138250000Y-43250000D01*
X136500000Y-32500000D02*
X138250000Y-34250000D01*
X86200000Y-42600000D02*
X79700000Y-42600000D01*
D11*
X152600000Y-60200000D02*
X152600000Y-49800000D01*
X162800000Y-60200000D02*
X152600000Y-60200000D01*
X162800000Y-49800000D02*
X162800000Y-60200000D01*
X152600000Y-49800000D02*
X162800000Y-49800000D01*
X122600000Y-87800000D02*
X135600000Y-87800000D01*
X122600000Y-58400000D02*
X135600000Y-58400000D01*
X122600000Y-87800000D02*
X122600000Y-58400000D01*
X135600000Y-58400000D02*
X135600000Y-87800000D01*
X105600000Y-87800000D02*
X118600000Y-87800000D01*
X105600000Y-58400000D02*
X118600000Y-58400000D01*
X105600000Y-87800000D02*
X105600000Y-58400000D01*
X118600000Y-58400000D02*
X118600000Y-87800000D01*
X89400000Y-58300000D02*
X89400000Y-68700000D01*
X79200000Y-58300000D02*
X89400000Y-58300000D01*
X79200000Y-68700000D02*
X79200000Y-58300000D01*
X89400000Y-68700000D02*
X79200000Y-68700000D01*
X152600000Y-71200000D02*
X152600000Y-60800000D01*
X162800000Y-71200000D02*
X152600000Y-71200000D01*
X162800000Y-60800000D02*
X162800000Y-71200000D01*
X152600000Y-60800000D02*
X162800000Y-60800000D01*
X110200000Y-44400000D02*
X99800000Y-44400000D01*
X110200000Y-34200000D02*
X110200000Y-44400000D01*
X99800000Y-34200000D02*
X110200000Y-34200000D01*
X99800000Y-44400000D02*
X99800000Y-34200000D01*
X121700000Y-44400000D02*
X111300000Y-44400000D01*
X121700000Y-34200000D02*
X121700000Y-44400000D01*
X111300000Y-34200000D02*
X121700000Y-34200000D01*
X111300000Y-44400000D02*
X111300000Y-34200000D01*
X133200000Y-44400000D02*
X122800000Y-44400000D01*
X133200000Y-34200000D02*
X133200000Y-44400000D01*
X122800000Y-34200000D02*
X133200000Y-34200000D01*
X122800000Y-44400000D02*
X122800000Y-34200000D01*
X142050000Y-63370000D02*
X142050000Y-68130000D01*
X142050000Y-63370000D02*
X138450000Y-63370000D01*
X138450000Y-68130000D02*
X142050000Y-68130000D01*
X138450000Y-68130000D02*
X138450000Y-63370000D01*
X149300000Y-61500000D02*
X144700000Y-61500000D01*
X149300000Y-59500000D02*
X144700000Y-59500000D01*
X149300000Y-61500000D02*
X149300000Y-59500000D01*
X144700000Y-61500000D02*
X144700000Y-59500000D01*
X92000000Y-68000000D02*
X96600000Y-68000000D01*
X92000000Y-70000000D02*
X96600000Y-70000000D01*
X92000000Y-68000000D02*
X92000000Y-70000000D01*
X96600000Y-68000000D02*
X96600000Y-70000000D01*
X83700000Y-74000000D02*
X88300000Y-74000000D01*
X83700000Y-76000000D02*
X88300000Y-76000000D01*
X83700000Y-74000000D02*
X83700000Y-76000000D01*
X88300000Y-74000000D02*
X88300000Y-76000000D01*
X149300000Y-65750000D02*
X144700000Y-65750000D01*
X149300000Y-63750000D02*
X144700000Y-63750000D01*
X149300000Y-65750000D02*
X149300000Y-63750000D01*
X144700000Y-65750000D02*
X144700000Y-63750000D01*
X83700000Y-80000000D02*
X88300000Y-80000000D01*
X83700000Y-82000000D02*
X88300000Y-82000000D01*
X83700000Y-80000000D02*
X83700000Y-82000000D01*
X88300000Y-80000000D02*
X88300000Y-82000000D01*
X149300000Y-70500000D02*
X144700000Y-70500000D01*
X149300000Y-68500000D02*
X144700000Y-68500000D01*
X149300000Y-70500000D02*
X149300000Y-68500000D01*
X144700000Y-70500000D02*
X144700000Y-68500000D01*
X144600000Y-55000000D02*
X149400000Y-55000000D01*
X144600000Y-57000000D02*
X149400000Y-57000000D01*
X144600000Y-55000000D02*
X144600000Y-57000000D01*
X149400000Y-55000000D02*
X149400000Y-57000000D01*
X115000000Y-107400000D02*
X115000000Y-102600000D01*
X117000000Y-107400000D02*
X117000000Y-102600000D01*
X115000000Y-107400000D02*
X117000000Y-107400000D01*
X115000000Y-102600000D02*
X117000000Y-102600000D01*
X131000000Y-107400000D02*
X131000000Y-102600000D01*
X133000000Y-107400000D02*
X133000000Y-102600000D01*
X131000000Y-107400000D02*
X133000000Y-107400000D01*
X131000000Y-102600000D02*
X133000000Y-102600000D01*
X119400000Y-114000000D02*
X114600000Y-114000000D01*
X119400000Y-112000000D02*
X114600000Y-112000000D01*
X119400000Y-114000000D02*
X119400000Y-112000000D01*
X114600000Y-114000000D02*
X114600000Y-112000000D01*
X135400000Y-114000000D02*
X130600000Y-114000000D01*
X135400000Y-112000000D02*
X130600000Y-112000000D01*
X135400000Y-114000000D02*
X135400000Y-112000000D01*
X130600000Y-114000000D02*
X130600000Y-112000000D01*
X140900000Y-118500000D02*
X136100000Y-118500000D01*
X140900000Y-116500000D02*
X136100000Y-116500000D01*
X140900000Y-118500000D02*
X140900000Y-116500000D01*
X136100000Y-118500000D02*
X136100000Y-116500000D01*
X124900000Y-118500000D02*
X120100000Y-118500000D01*
X124900000Y-116500000D02*
X120100000Y-116500000D01*
X124900000Y-118500000D02*
X124900000Y-116500000D01*
X120100000Y-118500000D02*
X120100000Y-116500000D01*
X106400000Y-114000000D02*
X101600000Y-114000000D01*
X106400000Y-112000000D02*
X101600000Y-112000000D01*
X106400000Y-114000000D02*
X106400000Y-112000000D01*
X101600000Y-114000000D02*
X101600000Y-112000000D01*
X103500000Y-102600000D02*
X103500000Y-107400000D01*
X101500000Y-102600000D02*
X101500000Y-107400000D01*
X103500000Y-102600000D02*
X101500000Y-102600000D01*
X103500000Y-107400000D02*
X101500000Y-107400000D01*
M02*
