M48
;DRILL file {KiCad 4.0.6-e0-6349~53~ubuntu16.04.1} date Tue Aug  8 22:09:32 2017
;FORMAT={-:-/ absolute / inch / decimal}
FMAT,2
INCH,TZ
T1C0.028
T2C0.040
T3C0.047
T4C0.051
T5C0.157
%
G90
G05
M72
T1
X3.6024Y-4.1142
X3.7087Y-2.626
X3.7598Y-3.937
T2
X3.3331Y-3.7803
X3.3331Y-3.8803
X3.3331Y-3.9803
X3.3331Y-4.0803
X3.3331Y-4.1803
X3.3331Y-4.2803
X3.3331Y-4.3803
X3.3331Y-4.4803
X3.3331Y-4.5803
X3.3331Y-4.6803
X3.3331Y-4.7803
X3.3331Y-4.8803
X3.3331Y-4.9803
X3.3331Y-5.0803
X3.3331Y-5.1803
X3.3331Y-5.2803
X3.3331Y-5.3803
X3.3331Y-5.4803
X3.3331Y-5.5803
X3.3331Y-5.6803
X3.4331Y-3.7803
X3.4331Y-3.8803
X3.4331Y-3.9803
X3.4331Y-4.0803
X3.4331Y-4.1803
X3.4331Y-4.2803
X3.4331Y-4.3803
X3.4331Y-4.4803
X3.4331Y-4.5803
X3.4331Y-4.6803
X3.4331Y-4.7803
X3.4331Y-4.8803
X3.4331Y-4.9803
X3.4331Y-5.0803
X3.4331Y-5.1803
X3.4331Y-5.2803
X3.4331Y-5.3803
X3.4331Y-5.4803
X3.4331Y-5.5803
X3.4331Y-5.6803
X6.1331Y-3.7803
X6.1331Y-3.8803
X6.1331Y-3.9803
X6.1331Y-4.0803
X6.1331Y-4.1803
X6.1331Y-4.2803
X6.1331Y-4.3803
X6.1331Y-4.4803
X6.1331Y-4.5803
X6.1331Y-4.6803
X6.1331Y-4.7803
X6.1331Y-4.8803
X6.1331Y-4.9803
X6.1331Y-5.0803
X6.1331Y-5.1803
X6.1331Y-5.2803
X6.1331Y-5.3803
X6.1331Y-5.4803
X6.1331Y-5.5803
X6.1331Y-5.6803
X6.2331Y-3.7803
X6.2331Y-3.8803
X6.2331Y-3.9803
X6.2331Y-4.0803
X6.2331Y-4.1803
X6.2331Y-4.2803
X6.2331Y-4.3803
X6.2331Y-4.4803
X6.2331Y-4.5803
X6.2331Y-4.6803
X6.2331Y-4.7803
X6.2331Y-4.8803
X6.2331Y-4.9803
X6.2331Y-5.0803
X6.2331Y-5.1803
X6.2331Y-5.2803
X6.2331Y-5.3803
X6.2331Y-5.4803
X6.2331Y-5.5803
X6.2331Y-5.6803
T3
X4.2669Y-2.5583
X4.2669Y-3.3465
X4.5591Y-2.4213
X4.5591Y-3.3465
X4.9362Y-2.5583
X4.9362Y-3.3465
X5.2283Y-2.4213
X5.2283Y-3.3465
T4
X3.3071Y-2.4016
X3.3071Y-2.5984
X4.0354Y-1.5354
X4.2323Y-1.5354
X4.4882Y-1.5354
X4.685Y-1.5354
X4.9409Y-1.5354
X5.1378Y-1.5354
X6.2205Y-2.0669
X6.2205Y-2.2638
X6.2205Y-2.5
X6.2205Y-2.6969
T5
X3.2581Y-1.4753
X3.2581Y-6.4903
X6.2631Y-1.4703
X6.2631Y-6.4903
T0
M30
